<?xml version="1.0" encoding="utf-8"?>
<!-- Generator: Fusion 360, Shaper Origin Export Add-In, Version 1.9.0  -->
<svg xmlns="http://www.w3.org/2000/svg" xmlns:xlink="http://www.w3.org/1999/xlink" xmlns:shaper="http://www.shapertools.com/namespaces/shaper" shaper:fusionaddin="version:1.9.0" width="2.5cm" height="62.8cm" version="1.1" x="0cm" y="0cm" viewBox="0 0 2.5 62.8" enable-background="new 0 0 2.5 62.8" xml:space="preserve"><path d="M1.4859503,-60.8619835 A0.05,0.05 90 0,1 1.4359503,-60.9119835 L1.4359503,-61.25 A0.05,0.05 0 0,0 1.3859503,-61.3 L1.1112948,-61.3 A0.05,0.05 270 0,0 1.0612948,-61.25 L1.0612948,-60.9119835 A0.05,0.05 0 0,1 1.0112948,-60.8619835 L0.903025,-60.8619835 A0.05,0.05 270 0,0 0.8635168,-60.7813387 L1.2092354,-60.3356276 A0.05,0.05 142.2008297 0,0 1.2881605,-60.3355103 L1.6360067,-60.7812213 A0.05,0.05 37.9695322 0,0 1.5965898,-60.8619835 L1.4859503,-60.8619835z" transform="matrix(1,0,0,-1,-0,0)" stroke="rgb(100,100,100)" stroke-width="0.0010cm" stroke-linecap="round" stroke-linejoin="round" fill="none" /><path d="M1.05,-57.05 L1.45,-57.05 A0.35,0.35 270 1,1 1.45,-56.35 L1.05,-56.35 A0.35,0.35 90 1,1 1.05,-57.05z" transform="matrix(1,0,0,-1,-0,0)" stroke="rgb(100,100,100)" stroke-width="0.0010cm" stroke-linecap="round" stroke-linejoin="round" fill="none" /><path d="M1.05,-36.05 L1.45,-36.05 A0.35,0.35 270 1,1 1.45,-35.35 L1.05,-35.35 A0.35,0.35 90 1,1 1.05,-36.05z" transform="matrix(1,0,0,-1,-0,0)" stroke="rgb(100,100,100)" stroke-width="0.0010cm" stroke-linecap="round" stroke-linejoin="round" fill="none" /><path d="M1.05,-15.05 L1.45,-15.05 A0.35,0.35 270 0,1 1.45,-14.35 L1.05,-14.35 A0.35,0.35 90 0,1 1.05,-15.05z" transform="matrix(1,0,0,-1,-0,0)" stroke="rgb(100,100,100)" stroke-width="0.0010cm" stroke-linecap="round" stroke-linejoin="round" fill="none" /><path d="M1.05,-1.05 L1.45,-1.05 A0.35,0.35 270 0,1 1.45,-0.35 L1.05,-0.35 A0.35,0.35 90 0,1 1.05,-1.05z" transform="matrix(1,0,0,-1,-0,0)" stroke="rgb(100,100,100)" stroke-width="0.0010cm" stroke-linecap="round" stroke-linejoin="round" fill="none" /><path d="M2.1,-62.8 L2.1,0 0.4,0 0.4,-62.8 2.1,-62.8z" transform="matrix(1,0,0,-1,-0,0)" stroke="rgb(100,100,100)" stroke-width="0.0010cm" stroke-linecap="round" stroke-linejoin="round" fill="none" /><path d="M1.0612948,-61.25 A0.05,0.05 180 0,1 1.1112948,-61.3 L1.3859503,-61.3 A0.05,0.05 270 0,1 1.4359503,-61.25 L1.4359503,-60.9119835 A0.05,0.05 180 0,0 1.4859503,-60.8619835 L1.5965898,-60.8619835 A0.05,0.05 270 0,1 1.6360067,-60.7812213 L1.2881605,-60.3355103 A0.05,0.05 37.9695322 0,1 1.2092354,-60.3356276 L0.8635168,-60.7813387 A0.05,0.05 142.2008297 0,1 0.903025,-60.8619835 L1.0112948,-60.8619835 A0.05,0.05 90 0,0 1.0612948,-60.9119835 L1.0612948,-61.25z" transform="matrix(1,0,0,-1,-0,0)" stroke="rgb(100,100,100)" stroke-width="0.0010cm" stroke-linecap="round" stroke-linejoin="round" fill="none" /><path d="M1.05,-56.35 A0.35,0.35 90 1,1 1.05,-57.05 L1.45,-57.05 A0.35,0.35 270 0,1 1.45,-56.35 L1.05,-56.35z" transform="matrix(1,0,0,-1,-0,0)" stroke="rgb(100,100,100)" stroke-width="0.0010cm" stroke-linecap="round" stroke-linejoin="round" fill="none" /><path d="M1.05,-35.35 A0.35,0.35 90 1,1 1.05,-36.05 L1.45,-36.05 A0.35,0.35 270 0,1 1.45,-35.35 L1.05,-35.35z" transform="matrix(1,0,0,-1,-0,0)" stroke="rgb(100,100,100)" stroke-width="0.0010cm" stroke-linecap="round" stroke-linejoin="round" fill="none" /><path d="M1.05,-14.35 A0.35,0.35 90 0,1 1.05,-15.05 L1.45,-15.05 A0.35,0.35 270 0,1 1.45,-14.35 L1.05,-14.35z" transform="matrix(1,0,0,-1,-0,0)" stroke="rgb(100,100,100)" stroke-width="0.0010cm" stroke-linecap="round" stroke-linejoin="round" fill="none" /><path d="M1.05,-0.35 A0.35,0.35 90 0,1 1.05,-1.05 L1.45,-1.05 A0.35,0.35 270 0,1 1.45,-0.35 L1.05,-0.35z" transform="matrix(1,0,0,-1,-0,0)" stroke="rgb(100,100,100)" stroke-width="0.0010cm" stroke-linecap="round" stroke-linejoin="round" fill="none" /><path d="M0.4,0 L0,0 0,-62.8 0.4,-62.8 2.1,-62.8 2.5,-62.8 2.5,0 2.1,0 0.4,0z" transform="matrix(1,0,0,-1,-0,0)" stroke="rgb(100,100,100)" stroke-width="0.0010cm" stroke-linecap="round" stroke-linejoin="round" fill="none" /><path d="M2.3,-62.8 L2.3,-62.3 2.3,-0.5 2.3,-0" transform="matrix(1,0,0,-1,-0,0)" stroke="rgb(100,100,100)" stroke-width="0.0010cm" stroke-linecap="round" stroke-linejoin="round" fill="none" /><path d="M0.2,-0 L0.2,-0.5 0.2,-62.3 0.2,-62.8" transform="matrix(1,0,0,-1,-0,0)" stroke="rgb(100,100,100)" stroke-width="0.0010cm" stroke-linecap="round" stroke-linejoin="round" fill="none" /></svg>