<?xml version="1.0" encoding="UTF-8"?>
<svg xmlns="http://www.w3.org/2000/svg" xmlns:svg="http://www.w3.org/2000/svg" xmlns:sodipodi="http://sodipodi.sourceforge.net/DTD/sodipodi-0.dtd" xmlns:rdf="http://www.w3.org/1999/02/22-rdf-syntax-ns#" xmlns:inkscape="http://www.inkscape.org/namespaces/inkscape" xmlns:dc="http://purl.org/dc/elements/1.1/" xmlns:cc="http://creativecommons.org/ns#" version="1.1" viewBox="0 0 738.9 2595.4">
  <!-- Generator: Adobe Illustrator 30.3.0, SVG Export Plug-In . SVG Version: 2.1.3 Build 182)  -->
  <g id="svg3321" inkscape:version="0.48.4 r9939" sodipodi:docname="standing_man.svg">
    <sodipodi:namedview id="namedview3323" bordercolor="#666666" borderopacity="1" fit-margin-bottom="100" fit-margin-left="100" fit-margin-right="100" fit-margin-top="100" gridtolerance="10" guidetolerance="10" inkscape:current-layer="svg3321" inkscape:cx="688.05272" inkscape:cy="1356.6234" inkscape:pageopacity="0" inkscape:pageshadow="2" inkscape:window-height="982" inkscape:window-maximized="0" inkscape:window-width="640" inkscape:window-x="603" inkscape:window-y="27" inkscape:zoom="0.32340543" objecttolerance="10" pagecolor="#ffffff" showgrid="false"/>
    <path id="path3331" d="M217,2594.8c-9.3-.7-19.8-4-26.7-8.4-5.2-3.3-8.6-9.6-10.2-18.8-.6-3.7-1.8-8.5-2.5-10.6-1.1-3.2-1.2-6.8-.5-18.8,1-16.7,2.2-22.8,5.5-29.4,2.5-4.9,10.7-17.7,17.6-27.4,4.4-6.1,13.5-19.7,17.5-26.1,1.2-2,2.2-4.2,2.2-4.9s1.8-5.1,4-9.6c3-6.3,4-9.5,4-13.3,0-2.8.6-6.2,1.4-7.6,8.4-15.1,13.3-27.7,14.3-37.6.5-4.8,0-5.4-8-8.3-3.2-1.2-6.8-2.8-8-3.5-1.2-.8-3.4-1.7-4.9-2-2.5-.6-2.7-1-3.3-7.9-.3-4-.5-10.9-.4-15.3.3-10.5-1.1-42-2.2-50.9-1.6-12.5-1.3-17.2,1.6-21.6,2.4-3.7,2.5-4.3,1.4-8.2-1.7-6.1-3.1-15.1-3.6-23.8-.2-4.1-.9-10.4-1.4-14-.5-3.6-1-10.6-.9-15.5,0-14.8-1-33.2-2.1-37.4-.6-2.2-1.2-6.1-1.5-8.8-.2-2.6-1.8-13.8-3.5-24.8-4-26-4.6-29.3-6.8-39.5-2.1-10-2.5-39.8-.5-46.6.8-2.7,1.2-15.2,1.3-36.5,0-17.8.3-36.5.6-41.4,1.2-24.8,0-36.2-4.8-49.3-1.2-3.1-1.9-7.8-1.9-11.5,0-5.7.4-6.9,4.5-13.2,2.5-3.8,4.5-7.7,4.5-8.5,0-.9-1.1-4.9-2.6-8.9l-2.6-7.3,2.2-6.3c2.2-6.3,2.2-6.5.5-13.6-2.3-9.7-2.2-10.9,1.3-15.2,3-3.8,5-9.1,5-13.3,0-2.8-5.4-13.8-8.3-17-1.5-1.6-2-3.4-1.9-6.2.1-2.2-.3-4.9-.9-6-.6-1.1-2-6.5-3-12-1.5-7.5-1.7-10.6-.9-12.7,1-2.7-.2-8.7-3.1-16-.5-1.2-1.2-6.1-1.5-11-.3-4.9-1.2-12-2-15.8-.7-3.8-1.9-11.1-2.5-16-.6-4.9-1.6-11.2-2.2-13.8s-1.1-6.7-1-8.9-.4-6.4-.9-9.2c-.6-2.8-1.2-6.4-1.4-8.1s-.9-5.2-1.5-8c-.6-2.8-1.7-9.1-2.5-14s-2.6-15.1-4-22.5c-1.4-7.4-2.9-15.8-3.2-18.5s-1.4-6.2-2.4-7.6c-1.7-2.4-6.4-14.7-9.1-23.9-.6-1.9-1.8-5.1-2.8-7s-2.1-5.5-2.5-8-1.9-7.9-3.3-12-2.9-9.3-3.3-11.5-1.9-8.9-3.3-15c-2.3-10-3.8-18.8-8.2-49.5-.8-5.8-2-13.2-2.5-16.5-.5-3.3-1.6-12.8-2.4-21-.8-8.2-2.1-21.5-3-29.5-.9-8-2-19.4-2.5-25.5-1.5-19.7-6.8-57.3-10-71-.7-2.9-1-10.5-.9-18,.2-7.3-.2-15.4-.9-18.5-.6-3-1.4-9.8-1.6-15-.2-5.2-1-16.5-1.6-25l-1.1-15.5,2.6-5.8c1.4-3.2,2.9-7.5,3.2-9.5.3-2,.9-4.2,1.3-4.7s1.3-3,2.1-5.5c.8-2.5,2-5.5,2.8-6.7.8-1.2,1.1-3,.8-4-1-3.3-.9-11.7.3-18.6,1-5.7.9-7.2-.4-9.8-2.9-5.5-.9-15.9,7-37.9.9-2.5,2.1-9.7,2.6-16,1.8-20.4,2.1-22.4,3.6-24.7.9-1.4,1.3-3.3.8-4.9-.9-3.7,2.2-19.6,5.1-26.2,1.6-3.5,1.4-6.9-.7-18.4-1.1-5.8-1-7.9.5-15.4.9-4.8,2.3-9.6,3.1-10.8.7-1.1,2.3-4.6,3.4-7.7,1.1-3.1,3.2-6.6,4.6-7.9s2.5-2.7,2.5-3.2c0-1.6,8.4-11.8,10.3-12.3,1-.3,2.5-2,3.4-3.7.9-1.7,2.7-4.4,4.1-5.9,1.6-1.7,2.3-3.3,1.9-4.4-.4-.9-.3-2.2.2-2.8,1.8-2.3,2.2-6.4.7-7.6-1-.8-1.6-.8-2.1,0-.4.6-3.4,2.5-6.8,4.2-3.4,1.7-7.4,4.2-9,5.5-1.6,1.3-3.3,2.4-3.9,2.4-3,0-28.1,18.5-35.7,26.4-10.1,10.4-20.5,12.1-34.3,5.6-5.1-2.4-8.3-5-15.1-12.3-11.3-12.1-15-17.3-16.6-22.7-.7-2.5-2.3-8.3-3.6-13-2.6-9.4-6-18.4-9.3-24.5-1.2-2.2-2.2-4.7-2.2-5.6,0-2.3-2.9-8.9-5-11.7-1-1.3-2.6-4.6-3.5-7.5-1.7-5.2-11.4-24.9-19.9-40.6-2.5-4.6-4.5-9.5-4.5-10.8,0-3.9,7.1-9.8,22.2-18.6l8.8-5.1v-5.5c0-4.3.5-6,2.2-7.8,2-2.2,2.2-3.3,2.3-18.6.1-15,.3-16.8,2.9-23.7,1.5-4.2,3.1-11,3.5-15.5.4-4.5,1.7-10.2,2.9-12.9,1.2-2.7,2.2-5.5,2.2-6.3s-1.8-3.3-4-5.7c-2.2-2.4-4.7-5.9-5.5-7.9-2.9-6.9-1.1-50.8,2.5-60.2.6-1.5,1-4,1-5.7s.5-3.9,1-4.9c.6-1,1.7-5.6,2.6-10.2.9-4.6,3.1-14.4,5.1-21.8,1.9-7.4,4.4-17.1,5.4-21.5s2.8-10.7,3.8-14c1-3.3,2.2-7.8,2.6-10,2.2-13.2,10.3-31.2,19.2-42.9,12.1-15.8,33.3-32,61.6-46.9,6.8-3.6,15.6-8.6,19.5-11.1,3.9-2.5,8.6-5.3,10.4-6.1,1.8-.8,6.9-4,11.3-7.1,9-6.2,27.9-15.7,35-17.6,2.9-.8,7-3.2,10.9-6.4,7.6-6.2,9.7-7.4,13.3-7.4,8.1,0,16.4-7.4,22.2-19.5,5.9-12.2,11.3-24.2,13.5-29.5.3-.8,1.9-3.5,3.6-6,6-9,6.1-9.6,5.4-26.7-.3-8.7-1.2-18.3-2-21.4-.8-3.1-1.4-8.1-1.4-11.1s-.6-6.3-2.4-8.9c-1.3-1.9-4.4-7.3-7-11.9-4.9-8.9-7.3-11.7-12.1-14-1.6-.8-3.8-2.9-4.9-4.9-1.1-1.9-2.8-4.6-3.8-5.9-1-1.3-1.9-3-1.9-3.7,0-2.8-5.3-17.6-7.4-20.7-7.5-11-11.4-22.6-9.6-28.7,1.6-5.5,1.2-8.5-1.5-11-1.4-1.3-2.5-3.4-2.5-4.6s-.7-4.9-1.6-8.1c-.9-3.2-2-7.3-2.4-9.1-.4-1.8-1.2-3.8-1.8-4.5-.5-.7-1.3-2.3-1.7-3.7-.7-2.4-3.6-29.5-3.6-33.5,0-7.4,1.1-21.1,1.9-23.8.5-1.8,1.8-7.7,2.7-13.2,1.1-6.4,2.7-11.9,4.6-15.4,1.6-3,2.9-6,2.9-6.8s1.1-2.9,2.5-4.7,2.5-4.2,2.5-5.3.7-4,1.6-6.6c2.3-6.7,25.2-28.8,35-33.8,8.2-4.1,14.4-8.3,19.1-12.7,3.4-3.2,10.9-7.3,13.2-7.3s2.6-.9,4.1-2c4-2.9,11.3-4,19.3-3,4.2.5,8.2.5,10.4-.2,4.1-1.1,15.2-.3,19.8,1.4,1.6.6,4.2,2.1,5.7,3.3,1.6,1.3,4.9,2.5,8,2.9,2.9.4,5.8,1.1,6.4,1.6,1.8,1.5,19.1,7,22,7s2.9.6,3.2,1.8c.5,1.8,4.6,4.6,11.9,8.1,2.2,1.1,6.4,4.7,9.4,8.1,3.6,4.1,7.1,7,10.7,8.7,6.2,2.9,9.4,6.5,9.4,10.4s.7,3.3,1.6,4.1c.9.7,2.7,3.6,4.1,6.4,1.4,2.8,3.4,6,4.5,7.2,1.1,1.2,1.8,2.6,1.5,3-.3.5.8,2.8,2.4,5.2,1.6,2.4,2.9,5.2,2.9,6.2s1.3,3.2,3,4.9,3,3.5,3,4,1.1,3.4,2.5,6.4c1.4,3,2.5,6.7,2.5,8.3s.7,3.8,1.5,5c1.5,2.1,1.5,5.6,0,17-.4,3-.2,7.2.5,10,.6,2.7,1.3,13.4,1.5,23.8.4,18.4-.2,24.9-3.2,34.6-.6,1.9-1.6,7-2.2,11.4-1.4,9.6-2.4,12.3-8.4,21.4-2.5,3.9-5,8.1-5.5,9.3-.5,1.3-1.9,3.6-3,5.3-1.1,1.6-2.1,4-2.1,5.1,0,1.2-.8,3.2-1.8,4.5-3.1,4.1-6.1,12.3-7.3,20-.6,4.1-1.5,8.1-2,9-.7,1.4-.1,16.4,1.6,40.9.5,7.3,3.5,19.3,5.2,21.2.9,1,3.3,2.1,5.4,2.4,4.2.7,6.2,2.9,7.3,8.2,1.1,4.9,4.9,12.9,8.7,18.3,8.8,12.4,10.3,14.5,12.7,17,1.6,1.7,3.6,2.8,5.2,2.8s4.2,1.1,6.1,2.4c2.5,1.7,5.6,2.5,10.9,3,8,.7,20.5,5.3,24.9,9.1,1.4,1.2,4.5,3.3,7,4.7,2.5,1.4,7.6,4.9,11.3,7.7,3.7,2.8,7.1,5.1,7.4,5.1s1.4.7,2.4,1.6c2.8,2.6,19.1,9.2,39,16,26.2,8.9,35.3,12.7,40.7,17.2,2.6,2.2,6.6,5.1,8.8,6.5,7.4,4.6,23.8,18.3,29.3,24.3,9.3,10.4,14,20.1,20.2,42.4,4.8,17.1,5.6,20.5,7.9,32.5,1.2,6,2.6,12.8,3.1,15,.5,2.2,1.8,9,3,15s2.7,14.2,3.5,18c.8,3.8,1.9,10.8,2.5,15.5.6,4.7,1.3,10.9,1.7,13.9,1.1,9.1,2.5,80.8,2.8,136.6v31c.1,0,8,.3,8,.3,4.4.1,8.6.8,9.4,1.5,1.3,1,1.4,3.6.8,16.7-.4,8.5-1.1,17.3-1.6,19.5-2,9-3.2,21.7-2.6,27.1.5,4.6.3,6.1-1,7.5-1.4,1.5-1.4,2.4-.5,5,1.5,4.3,1.4,9.1-.3,13.6-.8,2.1-1.7,6.8-2.1,10.5s-1.1,7-1.6,7.3c-.5.3-.9,2.2-.9,4.3,0,2-1.1,6.4-2.5,9.7-3.3,8-4.8,27.7-3.8,50.9,1.6,36.8.6,61.9-3.6,94.6-1.3,10.2-3.9,24.8-4.6,25.9-.3.5-1.5,6.1-2.6,12.5-1.1,6.4-2.4,12.6-2.9,13.8s-1.6,5.9-2.6,10.3-2.1,9.3-2.6,11c-1,3.5-1.6,6.5-3,16-.6,3.8-1.5,9.5-2.1,12.5-2,9.9-2.9,23.1-3.1,46-.3,22.2-1.8,35.6-4.7,41-.6,1.2-.9,2.8-.6,3.6.3.8.8,6.3,1.2,12.2.6,10.6,1.3,15,3.3,20.7,2,5.8,6.1,35.4,7.7,55.8.5,6.5.3,10.5-.9,15.5-.9,3.7-1.9,9-2.2,11.7-.3,2.8-1,7-1.5,9.5-.5,2.5-1.6,8.5-2.4,13.4-.8,4.9-1.8,9.2-2,9.4-.3.3-2.2,1.5-4.2,2.6-2.9,1.6-4,3.1-5.2,7-1.5,4.8-1.9,5.2-9.1,8.8-4.1,2.1-9.9,5.4-12.7,7.3-2.9,1.9-5.5,3.4-5.9,3.4-1.3,0-16.1,10.4-19.9,14.1-3.8,3.7-10.7,6.9-14.6,6.9s-2.7.8-3.7,1.8c-1.5,1.5-1.9,4.1-2.5,16.1-.4,7.8-1.3,20-2.2,26.9-.8,7-2,16.9-2.5,22.2-.6,5.2-2,13.6-3.1,18.5-3,13.3-11.7,43-14.9,51-9.9,24.7-14.5,35.8-17.4,42-3,6.2-3.5,8.5-4.5,20.5-.6,7.4-1.5,16.7-2,20.5s-1.4,12.4-2,19c-.6,6.6-1.7,16.1-2.4,21-.7,4.9-1.2,12-1.1,15.6.2,6.1-1,15.3-3.6,28.4-.5,2.8-1.4,9.5-2,15-.9,9.6-.9,10.2,1.5,15,2.2,4.3,2.5,6.5,2.7,16.5.2,11,0,11.7-2.5,15.6-3.2,4.9-2.8,8.6,1.2,11.2,5,3.2,5.4,6.1,1.5,11.7l-2.6,3.8,2.3,4.1c1.2,2.2,2.7,5,3.3,6.1,1.6,2.9,2.6,3.5,6.7,3.5,4.5,0,6.1,1.9,8.3,9,2,6.8,1.7,17.6-.7,28.1-1.5,6.5-1.6,8.9-.7,16,.6,4.6,1.5,12.5,2,17.6.5,5.1,1.1,9.6,1.4,10,.3.5.6,4.4.7,8.8.1,4.4.6,10.2,1,13,.4,2.8,1,14.4,1.4,25.9.3,11.5,1,22.8,1.6,25.2,1.8,8.2,4.4,33,4.4,43,0,5.5-.8,14.5-1.8,20-2.1,11.5-3,20.5-4.6,47-.7,10.4-1.4,21.2-1.6,24-.2,2.8-.5,5.9-.5,7,0,1.1.7,8.3,1.8,16,2.4,17.9,2.8,56.3.7,64.2-1.2,4.5-1.2,5.6,0,8.1,2.3,4.5,2.1,29.1-.3,38.1-.7,2.5-.8,4.8-.2,5.8,1.8,3.6,3.2,17.2,3.4,34.4.2,14.2,0,18-1.2,19.4-.8,1-4.3,3-7.8,4.6l-6.3,2.8.7,4.1c.6,3.7,1.6,6.3,7.5,19.4,3.9,8.6,6,13.8,6,14.6s3.6,5.8,8,12c4.4,6.1,8,11.5,8,11.9,0,1,8.6,11.8,13.8,17.2,2.3,2.4,6.7,5.9,9.9,7.8,3.2,1.9,6.9,4.2,8.3,5.3,9.2,6.8,34.4,31.7,39.2,38.8,3.8,5.5,10.7,23.5,10.7,27.7,0,1.3.9,4.9,2.1,8,2.4,6.7,2.7,18.5.5,23.7-1.7,4.1-10,10.4-13.7,10.5-1.5,0-3,.5-3.3,1-.3.6-1,.8-1.5.5-.5-.3-1.9,0-3.2.7-1.2.7-3.6,1.4-5.3,1.6s-3.5.8-4.1,1.3c-.6.5-3.4.5-6.5,0-3-.5-5.8-.6-6.3-.4-.5.3-1.9,0-3.2-.8-1.9-1-2.9-1-5.1,0-1.9.8-3,.9-3.7.2-.6-.6-2.7-1-4.6-1s-4-.4-4.6-1-5.9-1.3-12-1.6c-8.3-.5-12.3-1.2-16.3-3-3-1.3-6.2-2.4-7.1-2.4s-3.7-.9-6.1-2-5.6-2-7.1-2c-1.5,0-3-.7-3.4-1.5-.3-.8-1.1-1.5-1.8-1.5s-2.4-.9-3.8-2c-1.4-1.1-3.4-2-4.5-2-1.7,0-8.8-4.2-17.9-10.5-1.2-.8-4.1-5.3-6.3-9.9-3.7-7.5-5-9.2-13.1-15.9-6.5-5.5-10-7.7-12.7-8.1-2-.3-6.2-1-9.1-1.5-3-.5-6.7-1-8.2-1-4.5,0-20.9-5-27.2-8.3-3.4-1.8-7.6-5.2-10.2-8.1-4.8-5.7-14.7-25.4-16.6-33.1-.7-2.7-1.8-6.9-2.6-9.3s-1.4-7.8-1.4-12.1-.4-10-.9-12.7c-1.2-6.3-1.5-15-.7-24.4.8-9.8.9-26.5.3-36.5-.6-9.7-1.4-25.9-2.1-41.8-.3-6.5-1-12.6-1.5-13.6-.5-1-1.2-4.7-1.5-8.2-.3-3.5-1.1-10.6-1.7-15.9-1.5-12.2-1.3-19,.6-22.7.9-1.7,1.8-7.2,2.2-13.4.4-5.7,1.1-12.2,1.6-14.4.5-2.2.9-5.5.9-7.4,0-1.9,1.2-6.8,2.6-10.8,2.3-6.7,2.4-8,1.5-12.6-.6-2.8-1.3-8.8-1.6-13.2-.6-10.4-2.3-23.1-3.6-27.5-.6-1.9-1.5-9.6-1.9-17-.4-7.4-1.2-17.1-1.8-21.5-.5-4.4-1.6-15.3-2.4-24.2-.8-8.9-1.8-16.7-2.2-17.3-.4-.6-.9-6.2-1-12.3-.3-10.7-1.7-18.6-3.9-21.5-.9-1.2-2.6-8.2-4.8-20.2-.6-3.1-1.1-24.7-1.2-50-.1-41.8,0-44.8,1.8-50,1.1-3,2.3-6,2.8-6.7.5-.7.5-2.2.1-3.5-.4-1.3-.7-3-.5-3.9.1-.9-.7-3.2-1.9-5.2-1.6-2.7-2.1-5.1-2-10.4.2-19.6-.2-34.4-1-34.8-.5-.3-1.2-3-1.5-5.9-.6-4.7-.4-5.8,1.6-8.5,2.1-2.8,2.2-3.4,1-7.3-.7-2.4-2.2-6-3.3-8.1-2-3.9-2-5,.2-13.5.8-3.2.8-4.7,0-5.7-.6-.8-.9-2.6-.6-4.1.3-1.6-.2-4.3-1.4-6.7-1.6-3.3-1.8-5.3-1.3-11.5.7-8.1.6-16.9-.2-18.1-.3-.4-1.2-5.8-2-12.1s-2-14.5-2.5-18.3c-1.6-11.2-1.5-47,0-49.9.9-1.7,1-2.9.3-3.8-1.3-1.7-.9-19.6.5-23.1.8-2,.9-3.4.1-4.7-.9-1.7-1.2-5.4-.8-12.9,0-1.4-.2-7.4-.6-13.5s-.8-14.6-1-19c-.2-4.4-.6-9.1-1-10.5-.4-1.4-.8-6-1-10.3-.2-4.3-.7-8.3-1.1-9-1.1-1.5-1-14.8,0-16.5.4-.7.2-3.8-.4-7-1.6-8-2-11.3-2.5-22.9-.2-5.6-1.2-12.3-2.1-15-.9-2.7-1.9-7.1-2.1-9.9-.7-8.1-1.4-19.5-1.6-26.6-.1-4.3-.8-7.5-1.9-9.2-1-1.5-1.8-4.2-1.8-6.1s-1.1-5.9-2.5-8.9c-1.8-3.9-2.6-7.7-2.9-13.1-.4-7.1-1.6-10.6-3.7-10.6s-.9.5-.9,1.1-1.1,3.2-2.3,5.8c-1.5,3-2.1,5.4-1.6,6.6.4,1.1.1,3.2-.7,4.8-.8,1.6-1.5,5.4-1.5,8.5,0,3.6-.7,6.3-1.7,7.5-1.1,1.3-1.6,4.3-1.7,10.5-.2,12.3-1.2,23-2.3,25-.5.9-1.2,5.8-1.6,10.7-.4,4.9-1.1,9.5-1.6,10.1-.6.8-.5,2,.3,3.4,1,1.8.9,2.4-.4,3.4-2,1.5-2.1,3.3,0,5.5,1.2,1.3,1.3,2.3.5,4.4-.6,1.5-1,4.1-1,5.9,0,1.8-.4,5.8-1,9.1-.8,4.4-.8,6.2,0,7.3.7.8,1.5,3.7,2,6.5.6,3.9.5,5.6-.8,7.5-1.4,2.1-1.4,2.8-.2,5.6.7,1.8,1.3,3.5,1.2,3.8-.1.3-.2,4.6-.2,9.5,0,4.9,0,13.5,0,19.1,0,5.9.3,10.4.9,10.8,1.6,1,1.2,8.1-.5,9.5-1.9,1.6-1.9,9.1,0,14.2,1.1,3.1,1.1,4,0,5.5-2,2.6-1.7,4.5,1.2,8.3,2.5,3.3,2.5,3.8,2,14.4-.3,6.1-.6,11.9-.5,13,.6,19,.5,28.1-.2,33.3-.5,3.5-1.1,11.2-1.4,17.3-.3,6-1.4,14.4-2.5,18.6-1.1,4.2-2,9.5-2,11.8s-.5,4.7-1.1,5.3c-.8.8-.7,2.2.5,5.3,1.2,3.1,1.4,4.5.6,5.5-.6.7-1.2,5.7-1.4,11.1-.1,5.4-.9,11.9-1.6,14.3-1.4,4.8-1.8,7.7-2.3,18.1-.2,3.6-.6,7-1,7.6s-.2,2.7.4,4.8c.8,2.9.7,4.4-.2,6.2-1.4,2.6-.6,3.9,2.6,4.5,2.9.5,3.6,6.5,3.1,26.3-.4,16.6-1.2,23.1-3.5,28.8-1.6,3.9-1.4,8.6.3,9.3,2.3.9,3.4,6,3.9,16.9.2,5.5,1,16.2,1.7,23.7,1,10.8,1,14.6,0,17.7-1.5,4.9-.6,20.4,1.4,27,2.2,7.2,3.4,16.3,4.5,34,.5,9.1,1.2,19.6,1.6,23.5.3,3.9.6,8.1.6,9.5-.3,18.5.4,74.7,1.2,98,.4,10.7.8,25.8,1,33.5s.9,17.6,1.6,22c.9,5.4,1,11.4.5,18.5-1,13.4-1,12.7,1,18,2.5,6.6,3,25.6.7,29-1.9,2.8-2.5,13.6-1,18.5.5,1.6,1.3,5.7,1.8,9,.5,3.3,1.3,8.1,1.9,10.6.5,2.6.7,6.6.5,9-.3,2.4-.5,6.5-.5,9.2,0,6.5-1,8.1-7.3,11-4.8,2.2-5.7,3.1-8.1,8.3-2.3,5.1-2.6,6.4-1.7,9.9,1.1,4.5,2.2,23.3,2.2,38.6s-.8,13.3-4.2,21.4c-.5,1.1-1.1,4-1.4,6.5-.3,2.5-1,7.9-1.6,12-.6,4.1-1.4,10.3-1.8,13.6-1.1,8.7-5.3,13.5-17.2,19.8-10.1,5.4-16.6,11.4-15.5,14.6.3,1.1-.2,4.5-1.1,7.7-2.3,7.7-3.3,13.5-4.4,27.2-1.4,15.9-3.4,19.8-14.8,28.9-4.8,3.8-10.1,8.1-11.8,9.5-1.7,1.4-3.8,2.6-4.6,2.6s-1.7.3-2.1.6c-.8.8-8.6,3.6-21.2,7.5-10.9,3.4-23.2,4.3-40.5,2.9h0ZM375.7,1434.1c.8-2.2-1.3-4.2-2.8-2.7-1.3,1.3-.5,4.3,1.1,4.3s1.3-.7,1.7-1.6h0ZM621.5,1401.7c2.1-4,3.1-17.9,1.6-20.8-.7-1.3-1.7-1.9-2.7-1.6-1.3.5-1.5,2.2-1.4,8.7.1,4.5-.1,9.3-.5,10.8-.7,2.6-.2,5.8.9,5.8s1.2-1.4,2.1-3h0ZM621.1,1249c.6-1.5,2.1-5,3.4-7.8,4.1-9,5.7-14.9,6.4-23.6.4-4.7,1.1-9.2,1.5-9.9,1.5-2.4.7-53.6-1-68.1-2.7-22.7-4.4-34.1-6.5-43-1.1-4.7-3.6-16.6-5.5-26.5-3.5-17.8-3.5-18.3-3.6-45.5,0-15.1,0-33.8.3-41.5l.3-14-3.9-5.8c-2.9-4.3-4.1-7.3-4.6-11.5-.7-6.1-2.7-11.2-5.9-15.2-1.9-2.3-1.9-2.8-.6-7.5.8-2.8,2.2-7,3-9.4,1.6-4.3,1.6-4.6-1-10.3-1.4-3.2-2.9-8.3-3.2-11.3-.7-6.3-1.6-7.4-6.8-7.7-3.7-.2-3.8-.1-4.7,3.8-.5,2.3-.5,6.8,0,10.5.5,3.6.9,7.4.9,8.5,0,1.1.6,8.8,1.2,17,.7,8.2,1.4,19.7,1.6,25.5.5,15.1,2,33,3.7,44.5,3.4,23.1,4.8,34.4,4.8,39.5,0,10.7.6,37.7,1.3,53,.6,15,2.3,27.1,5.1,37.5.8,3,1.5,11.6,1.7,21.6.3,14.1,0,16.9-1.3,18.5-.9,1-1.9,2.4-2.2,3-1.1,1.9,1.2,18.1,3.4,23.5,1.4,3.4,2.5,10.4,3.5,20.8,1.7,18.6,3.4,32.2,4.1,33.3,1.1,1.7,3.5.7,4.5-1.9h0Z" inkscape:connector-curvature="0"/>
  </g>
</svg>