<?xml version="1.0" encoding="utf-8"?>
<!-- Generator: Fusion 360, Shaper Origin Export Add-In, Version 1.9.0  -->
<svg xmlns="http://www.w3.org/2000/svg" xmlns:xlink="http://www.w3.org/1999/xlink" xmlns:shaper="http://www.shapertools.com/namespaces/shaper" shaper:fusionaddin="version:1.9.0" width="60cm" height="12.65cm" version="1.1" x="0cm" y="0cm" viewBox="0 0 60 12.65" enable-background="new 0 0 60 12.65" xml:space="preserve"><path d="M-169.7,-68.5262695 L-110.3,-68.5262695 -110.3,-67.3262695 -169.7,-67.3262695 -169.7,-68.5262695z" transform="matrix(1,0,0,-1,170,-56.1762695)" stroke="rgb(100,100,100)" stroke-width="0.0010cm" stroke-linecap="round" stroke-linejoin="round" fill="none" /><path d="M-169.85,-56.1762695 L-170,-56.1762695 -170,-56.6762695 -170,-57.2762695 -170,-57.7762695 -170,-58.2762695 -170,-65.0762695 -170,-65.5762695 -170,-66.0762695 -170,-66.6762695 -170,-67.1762695 -169.85,-67.1762695 -169.85,-67.1360772 A0.3,0.3 240 0,1 -169.7,-67.1762695 L-169.7,-67.3262695 -169.7,-68.5262695 -169.7,-68.6762695 -169.7,-68.8262695 -169.3,-68.8262695 -110.7,-68.8262695 -110.3,-68.8262695 -110.3,-68.6762695 -110.3,-68.5262695 -110.3,-67.3262695 -110.3,-67.1762695 A0.3,0.3 270 0,1 -110.15,-67.1360772 L-110.15,-67.1762695 -110,-67.1762695 -110,-66.6762695 -110,-66.0762695 -110,-65.5762695 -110,-65.0762695 -110,-58.2762695 -110,-57.7762695 -110,-57.2762695 -110,-56.6762695 -110,-56.1762695 -110.15,-56.1762695 -110.15,-56.6762695 -110.15,-57.2762695 -110.15,-57.7762695 -110.15,-58.2762695 -110.15,-65.0762695 -110.15,-65.5762695 -110.15,-66.0762695 -110.15,-66.6762695 -110.15,-66.8762695 -110.15,-66.8762695 -110.1505334,-66.8888467 -110.152098,-66.9012695 A0.15,0.15 350.4059318 0,0 -110.3,-67.0262695 L-110.9,-67.0262695 -110.9,-66.8762695 -110.9,-66.1512695 A0.4,0.4 0 0,1 -111.3,-65.7512695 L-115.6,-65.7512695 -115.6,-65.6762695 -115.6,-65.5262695 -115.6,-65.3762695 -116,-65.3762695 -164,-65.3762695 -164.4,-65.3762695 -164.4,-65.5262695 -164.4,-65.6762695 -164.4,-65.7512695 -168.7,-65.7512695 A0.4,0.4 90 0,1 -169.1,-66.1512695 L-169.1,-66.8762695 -169.1,-67.0262695 -169.7,-67.0262695 A0.15,0.15 270 0,0 -169.847902,-66.9012695 L-169.847902,-66.9012695 -169.8494666,-66.8888467 -169.85,-66.8762695 -169.85,-66.6762695 -169.85,-66.0762695 -169.85,-65.5762695 -169.85,-65.0762695 -169.85,-58.2762695 -169.85,-57.7762695 -169.85,-57.2762695 -169.85,-56.6762695 -169.85,-56.1762695z" transform="matrix(1,0,0,-1,170,-56.1762695)" stroke="rgb(100,100,100)" stroke-width="0.0010cm" stroke-linecap="round" stroke-linejoin="round" fill="none" /></svg>