<?xml version="1.0" encoding="utf-8"?>
<!-- Generator: Fusion 360, Shaper Origin Export Add-In, Version 1.9.0  -->
<svg xmlns="http://www.w3.org/2000/svg" xmlns:xlink="http://www.w3.org/1999/xlink" xmlns:shaper="http://www.shapertools.com/namespaces/shaper" shaper:fusionaddin="version:1.9.0" width="2.5cm" height="62.8cm" version="1.1" x="0cm" y="0cm" viewBox="0 0 2.5 62.8" enable-background="new 0 0 2.5 62.8" xml:space="preserve"><path d="M2.1,-62.8 L2.1,0 0.4,0 0.4,-62.8 2.1,-62.8z" transform="matrix(1,0,0,-1,-0,0)" stroke="rgb(100,100,100)" stroke-width="0.0010cm" stroke-linecap="round" stroke-linejoin="round" fill="none" /><path d="M0.4,0 L0,0 0,-62.8 0.4,-62.8 2.1,-62.8 2.5,-62.8 2.5,0 2.1,0 0.4,0z" transform="matrix(1,0,0,-1,-0,0)" stroke="rgb(100,100,100)" stroke-width="0.0010cm" stroke-linecap="round" stroke-linejoin="round" fill="none" /><path d="M2.3,-62.8 L2.3,-62.3 2.3,-0.5 2.3,-0" transform="matrix(1,0,0,-1,-0,0)" stroke="rgb(100,100,100)" stroke-width="0.0010cm" stroke-linecap="round" stroke-linejoin="round" fill="none" /><path d="M0.2,-0 L0.2,-0.5 0.2,-62.3 0.2,-62.8" transform="matrix(1,0,0,-1,-0,0)" stroke="rgb(100,100,100)" stroke-width="0.0010cm" stroke-linecap="round" stroke-linejoin="round" fill="none" /></svg>