<?xml version="1.0" encoding="utf-8"?>
<svg xmlns="http://www.w3.org/2000/svg" viewBox="0 0 2.5 62.8">
  <!-- White fill = visible spine body; evenodd holes = transparent cut-outs -->
  <path fill="white" fill-rule="evenodd" d="
    M0,0 H2.5 V62.8 H0 Z
    M1.05,0.70 A0.20,0.35 0 1,0 1.45,0.70 A0.20,0.35 0 1,0 1.05,0.70 Z
    M1.05,14.70 A0.20,0.35 0 1,0 1.45,14.70 A0.20,0.35 0 1,0 1.05,14.70 Z
    M1.05,35.70 A0.20,0.35 0 1,0 1.45,35.70 A0.20,0.35 0 1,0 1.05,35.70 Z
    M1.05,56.70 A0.20,0.35 0 1,0 1.45,56.70 A0.20,0.35 0 1,0 1.05,56.70 Z
  "/>
</svg>
