<?xml version="1.0" encoding="utf-8"?>
<!-- Generator: Fusion 360, Shaper Origin Export Add-In, Version 1.9.0  -->
<svg xmlns="http://www.w3.org/2000/svg" xmlns:xlink="http://www.w3.org/1999/xlink" xmlns:shaper="http://www.shapertools.com/namespaces/shaper" shaper:fusionaddin="version:1.9.0" width="51.596975cm" height="2cm" version="1.1" x="0cm" y="0cm" viewBox="0 0 51.596975 2" enable-background="new 0 0 51.596975 2" xml:space="preserve"><g id="Body_Body1"><path d="M0.2,-1.3 L0.2,-0.2 A0.2,0.2 180 0,0 0.4,0 L2.1,0 A0.2,0.2 90 0,0 2.3,-0.2 L2.3,-1.3 2.3,-1.8 2.5,-1.8 2.5,-1.3 2.5,-0.2 A0.4,0.4 0 0,1 2.1,0.2 L0.4,0.2 A0.4,0.4 90 0,1 0,-0.2 L-0,-1.3 -0,-1.8 0.2,-1.8 0.2,-1.3z" transform="matrix(1,0,0,-1,49.096975,0.2)" fill="rgb(0,0,0)" shaper:cutDepth="62.8cm" stroke-linecap="round" stroke-linejoin="round" /><path d="M-49.096975,-0 L-49.096975,0.2 -48.9887052,0.2 -48.9887052,-0 -49.096975,-0z" transform="matrix(1,0,0,-1,49.096975,0.2)" fill="rgb(196,196,196)" fill-rule="nonzero" shaper:cutDepth="60.8619835cm" stroke-linecap="round" stroke-linejoin="round" /><path d="M-48.4034102,0.2 L-48.4034102,-0 -48.5140497,-0 -48.5140497,0.2 -48.4034102,0.2z" transform="matrix(1,0,0,-1,49.096975,0.2)" fill="rgb(196,196,196)" fill-rule="nonzero" shaper:cutDepth="60.8619835cm" stroke-linecap="round" stroke-linejoin="round" /></g></svg>